<?xml version="1.0" standalone="no"?>
<svg viewBox="0 0 200 200" xmlns="http://www.w3.org/2000/svg">
  <path fill="#FA4D56" d="M41.3,-67.7C53,-56.8,61.6,-44.4,68.9,-30.8C76.1,-17.1,82,-2.3,80.5,11.9C79,26.1,70,39.5,59.1,50.2C48.2,60.9,35.4,69,21.2,74.2C6.9,79.3,-8.8,81.5,-22.3,77.1C-35.8,72.7,-47.1,61.6,-58.5,49.9C-69.9,38.2,-81.5,25.8,-83.9,11.8C-86.3,-2.2,-79.5,-17.7,-71.3,-31.2C-63.1,-44.8,-53.3,-56.3,-41.2,-67C-29,-77.6,-14.5,-87.5,0.1,-87.7C14.8,-87.9,29.6,-78.5,41.3,-67.7Z" transform="translate(100 100)" />
</svg>
